<?xml version="1.0" standalone="no"?>
<!DOCTYPE svg PUBLIC "-//W3C//DTD SVG 20010904//EN"
 "http://www.w3.org/TR/2001/REC-SVG-20010904/DTD/svg10.dtd">
<svg version="1.0" xmlns="http://www.w3.org/2000/svg"
 width="90.000000pt" height="90.000000pt" viewBox="0 0 90.000000 90.000000"
 preserveAspectRatio="xMidYMid meet">
<metadata>
Created by potrace 1.11, written by Peter Selinger 2001-2013
</metadata>
<g transform="translate(0.000000,90.000000) scale(0.100000,-0.100000)"
fill="#000000" stroke="none">
<path d="M361 889 c-227 -44 -391 -278 -353 -505 32 -194 180 -344 370 -375
299 -49 562 214 513 513 -41 249 -282 416 -530 367z m114 -159 c3 -5 2 -26 -4
-45 -9 -34 -8 -36 12 -33 14 2 24 13 29 36 7 27 13 33 31 30 23 -3 25 -15 13
-62 -5 -21 -1 -27 30 -42 19 -9 42 -28 51 -41 20 -31 11 -92 -18 -116 l-22
-18 21 -20 c26 -24 28 -65 6 -113 -21 -42 -50 -56 -119 -56 -48 0 -55 -3 -55
-19 0 -35 -12 -51 -37 -51 -23 0 -24 2 -17 46 6 41 5 46 -12 42 -10 -2 -21
-16 -26 -36 -7 -25 -14 -32 -33 -32 -27 0 -30 9 -16 57 9 31 9 31 -40 43 -27
7 -49 17 -49 23 1 25 29 50 50 44 25 -7 24 -8 55 108 28 108 31 145 13 145
-27 0 -39 17 -33 42 7 26 7 26 56 13 l49 -13 10 39 c8 28 16 39 30 39 10 0 22
-4 25 -10z"/>
<path d="M446 582 c-3 -5 -8 -27 -12 -49 l-6 -41 40 -7 c24 -4 49 -2 61 5 38
20 21 71 -30 89 -38 13 -46 14 -53 3z"/>
<path d="M405 418 c-3 -13 -7 -36 -8 -53 -2 -27 1 -30 41 -39 59 -13 92 3 92
44 0 27 -6 34 -42 50 -56 26 -76 25 -83 -2z"/>
</g>
</svg>
